<?xml version="1.0" encoding="utf-8"?>
<svg id="master-artboard" viewBox="0 0 1400 980" version="1.1" xmlns="http://www.w3.org/2000/svg" x="0px" y="0px" enable-background="new 0 0 1400 980" width="1400px" height="980px"><rect id="ee-background" x="0" y="0" width="1400" height="980" style="fill: white; fill-opacity: 0; pointer-events: none;"/>
<path d="M 438 342.5 L 438 342.5 L 438 342.5 Z" fill="#FFE0B1" transform="matrix(1, 0, 0, 1, -30.0352783203125, 33.6395263671875)"/><path fill="#8EA6AD" d="M1292.9,715.7c-1.1,4.7-1.4,9.5-1.2,14.2c2-6.6,4.7-13,7.5-19.2c7.1-15.7,16.7-34.1,12.7-51.9&#10;&#9;&#9;&#9;&#9;c-3-13.2-14.7-25.7-29-22.2C1316,647.3,1300.7,690.5,1292.9,715.7z" transform="matrix(3.035615249851139, 0, 0, 3.035615249851139, -2966.072445045332, -1613.6937290343835)" style="stroke: rgb(0, 0, 0); stroke-width: 0; stroke-opacity: 0; fill-opacity: 1;"/><path fill="#77919D" d="M1249,811c0-0.1-0.1-0.1-0.1-0.2c-1.3-0.1-2.6-0.3-3.8-0.6c-0.1,0.5-0.3,1-0.6,1.5&#10;&#9;&#9;&#9;&#9;c3.9,3.1,8.3,5.5,13,7.1C1254,817,1251.2,814.4,1249,811z" transform="matrix(3.035615249851139, 0, 0, 3.035615249851139, -2966.072445045332, -1613.6937290343835)" style="stroke: rgb(0, 0, 0); stroke-width: 0; stroke-opacity: 0; fill-opacity: 1;"/><path fill="#77919D" d="M1299,796.7c-1.2,0.3-2.3,0.6-3.5,0.8c-4.2,8-13.6,10.7-21.5,14.2c7.9-3.5,17.2-6.2,21.5-14.2&#10;&#9;&#9;&#9;&#9;c-0.1,0-0.3,0.1-0.4,0.1c-5.7,0.9-8.1-7.8-2.4-8.7c7.8-1.3,14.9-4.7,20.4-10.1c-10.2-1.6-19.2-9.6-22.2-19.7&#10;&#9;&#9;&#9;&#9;c-3-9.9-1.8-19.7,1-29.2c-0.2-4.7,0.1-9.4,1.2-14.2c7.8-25.3,23.1-68.4-9.9-79.1c-0.1,0-0.1,0-0.2,0c-0.8,0.7-1.8,0.9-2.8,0.8&#10;&#9;&#9;&#9;&#9;c-4.1,0.7-6.1-4.8-3.5-7.6c0.7-1.6,1.3-3.2,1.8-4.9c-1.3-3.3-3-6.4-4.4-9.7c-1.5,1.8-5.1,0.4-4.3-2.3c0.7-2.6,0.3-5.4-1.4-7.6&#10;&#9;&#9;&#9;&#9;c-0.5-0.6-0.6-1.2-0.6-1.9c-13.9-17.5-39.9-13.1-59.6-23.8c-6-3.3-9.6-9.7-10-16.4c-1.5-5.2-0.7-10.7,2-14.9&#10;&#9;&#9;&#9;&#9;c-0.5,0.1-1,0.2-1.4,0.3c-4.4,4.1-8,9.1-10.8,14.5c1.3,0,2.6,0.8,2.7,2.4c0.5,10.8,8.3,19.8,18.7,22.2c3.1,0.7,1.8,5.5-1.3,4.8&#10;&#9;&#9;&#9;&#9;c-12-2.8-20.8-12.9-22.2-25c-2.6,6-4.3,12.3-5.3,18.6c0,0,0,0,0,0.1c3.2,4.9-4.6,9.4-7.8,4.5c-7.3-11.2-6.6-26.7,1.5-37.3&#10;&#9;&#9;&#9;&#9;c-0.1-0.2-0.1-0.5-0.2-0.7c-0.9-6.1-0.3-11.9,1.8-17.3c-8.1,6-13.7,14.1-17.8,22.9c1.6-1.6,5.1-0.3,4.2,2.4&#10;&#9;&#9;&#9;&#9;c-5.9,17.5,0.7,36.1,16.5,45.7c2.7,1.7,0.2,6-2.5,4.3c-17.2-10.5-25-30.7-19.3-49.9c-3,7.1-5.1,14.7-6.7,22.1&#10;&#9;&#9;&#9;&#9;c0.2,0.4,0.5,0.9,0.8,1.3c3.2,4.9-4.6,9.4-7.8,4.5c-5.3-8.1-6.4-18.3-4.3-27.6c-1.4-1.5-2.7-3.1-3.8-4.8&#10;&#9;&#9;&#9;&#9;c-10.9,11.3-14.7,27.5-15.9,43.3c0.1,0.1,0.1,0.2,0.2,0.3c3.6,4.5-2.7,10.9-6.4,6.4c-3-3.7-5.2-8-6.5-12.6c-0.1,0-0.2,0-0.3-0.1&#10;&#9;&#9;&#9;&#9;c-5.1-1.6-8.8-5.7-10.1-10.5c-1.7,1.2-3.2,2.6-4.6,4.1c-2.6,7.4-1.3,16.5,1.4,23.3c1.1,2.8,2.6,5.5,4.6,8&#10;&#9;&#9;&#9;&#9;c-3.1-5.6-4.9-12.1-4.8-19.1c0.1-3.2,5.1-3.2,5,0c-0.4,19.5,15.7,34.5,35.1,33c1.7-0.1,2.5,1.2,2.4,2.4c4,0.1,8.1,0,12.3-0.2&#10;&#9;&#9;&#9;&#9;c-0.3-1.4,0.5-3.1,2.3-3.3c33.6-2.1,73.7-2.8,95.7,27.5c1.9,2.6-2.4,5.1-4.3,2.5c-6.1-8.5-13.9-14.3-22.6-18.2&#10;&#9;&#9;&#9;&#9;c6.1,4.2,11.3,10.1,15.3,18.3c1.6,3.8,3,7.6,4,11.6c3,3.1,5.7,6.5,8.2,10c1.4,2,0.8,4-0.6,5.2c-1.1,3.6-2.8,6.9-4.7,10.2&#10;&#9;&#9;&#9;&#9;c-2.2,3.8-5.3,8.4-4.7,13.1c0.5,4.2,4.5,6.3,7.4,8.7c2.3,1.9,4.3,4,5.7,6.8c0.1,0.2,0.2,0.4,0.2,0.5c1.1,1.3,1.5,3.1,0.3,4.9&#10;&#9;&#9;&#9;&#9;c-5,7.5-10.2,15.2-13.6,23.5c4.9-4.7,10.2-8.8,16.6-11.7c0.7-1,1.9-1.7,3.5-1.6c0.2,0,0.4,0,0.6,0.1c0.5,0,0.9,0,1.3,0.1&#10;&#9;&#9;&#9;&#9;c2.6,0.3,5,0.9,7.4,1.7c-0.5-7.4,0.3-14.7,2.5-22c0.9-3.1,5.8-1.8,4.8,1.3c-2.3,7.5-3,15.2-2.1,22.9c2.7,1.5,5.2,3.4,7.3,5.8&#10;&#9;&#9;&#9;&#9;c-1.1-11.4,0.7-23.3,2.7-34.6c0.6-3.2,5.4-1.8,4.8,1.3c-3.3,18.9-6.7,41,7.1,56.8c2.1,2.4-1.4,6-3.5,3.5c-1.5-1.7-2.8-3.5-4-5.4&#10;&#9;&#9;&#9;&#9;c-0.2,6.5-2,13-5.3,18.5c-0.1,0.2-0.3,0.4-0.4,0.6c2,3,5,5.1,8.7,5.8c3.2,0.7,1.8,5.5-1.3,4.8c-4.1-0.9-7.8-3.2-10.4-6.4&#10;&#9;&#9;&#9;&#9;c-5.3,6.6-12.6,11.6-21.2,12.6c2.2,2.4,4.9,4.3,8,5.4c2.2,0.8,2.1,3.4,0.8,4.5c3,0.5,6.1,0.6,9.1,0.3c-3.7-2.1-3.1-8.9,1.9-8.4&#10;&#9;&#9;&#9;&#9;c12.5,1.3,24.5-2.3,34-10c-3.2-1.2-6.3-2.9-9.1-5C1299.4,797.2,1299.2,797,1299,796.7z M1138.1,614.8&#10;&#9;&#9;&#9;&#9;c-10.3-10.3-14.8-24.6-12.3-38.9c0.5-3.2,5.4-1.8,4.8,1.3c-2.1,12.5,2.1,25.1,11.1,34.1C1144,613.6,1140.4,617.1,1138.1,614.8z&#10;&#9;&#9;&#9;&#9; M1153.1,613.8c-5.8-2.7-10-7.9-11.6-14c-0.8-3.1,4-4.4,4.8-1.3c1.3,5,4.6,8.9,9.3,11C1158.6,610.8,1156,615.1,1153.1,613.8z&#10;&#9;&#9;&#9;&#9; M1284.6,647.9c4.1,2.1,7.7,4.7,11,7.9c2.3,2.2-1.2,5.8-3.5,3.5c-3-2.9-6.3-5.2-10-7.1C1279.2,650.8,1281.8,646.5,1284.6,647.9z&#10;&#9;&#9;&#9;&#9; M1277.1,653.6c7.9,2.5,14.3,7.4,18.9,14.2c1.8,2.7-2.5,5.2-4.3,2.5c-3.8-5.7-9.4-9.8-16-11.9&#10;&#9;&#9;&#9;&#9;C1272.7,657.5,1274,652.7,1277.1,653.6z M1249.9,592.5c11.5,7.5,18.4,19.9,18.5,33.6c0,3.2-5,3.2-5,0c-0.1-11.9-6.1-22.8-16-29.3&#10;&#9;&#9;&#9;&#9;C1244.7,595.1,1247.2,590.8,1249.9,592.5z M1222.9,596c20.8,2.1,36.7,17.8,39.1,38.6c0.4,3.2-4.6,3.2-5,0&#10;&#9;&#9;&#9;&#9;c-2-17.9-16.2-31.8-34.1-33.6C1219.7,600.7,1219.7,595.7,1222.9,596z M1249.3,636.7c-5.6-5.5-11.3-11-16.9-16.6&#10;&#9;&#9;&#9;&#9;c-2.3-2.3,1.2-5.8,3.5-3.5c5.6,5.5,11.3,11,16.9,16.6C1255.1,635.4,1251.6,639,1249.3,636.7z M1188.2,594.8&#10;&#9;&#9;&#9;&#9;c-2.1-2.4,1.4-6,3.5-3.5c3.3,3.7,7.2,6.6,11.8,8.5c3,1.2,1.7,6-1.3,4.8C1196.8,602.4,1192,599.2,1188.2,594.8z M1243.5,647.2&#10;&#9;&#9;&#9;&#9;c-11.2-15.8-29.8-24.9-49.1-24.4c-3.2,0.1-3.2-4.9,0-5c21.2-0.5,41.2,9.7,53.4,26.9C1249.7,647.3,1245.3,649.8,1243.5,647.2z&#10;&#9;&#9;&#9;&#9; M1254.4,724.3c-2.5-7.2-6.7-13.3-12.3-18.4c-2.4-2.2,1.2-5.7,3.5-3.5c6.3,5.7,10.8,12.7,13.6,20.6&#10;&#9;&#9;&#9;&#9;C1260.3,726,1255.4,727.3,1254.4,724.3z M1261.7,715.3c-3.3-4.2-6.6-8.4-10-12.5c-2-2.5,1.5-6.1,3.5-3.5c3.3,4.2,6.6,8.4,10,12.5&#10;&#9;&#9;&#9;&#9;C1267.2,714.3,1263.7,717.8,1261.7,715.3z M1267.6,704.4c-4.3-4.9-9.1-9.1-14.4-12.7c-2.7-1.8-0.2-6.1,2.5-4.3&#10;&#9;&#9;&#9;&#9;c5.7,3.8,10.9,8.3,15.4,13.5C1273.2,703.3,1269.7,706.8,1267.6,704.4z M1280.2,701.8c-3.8-14.4-14.3-26.1-28.3-31.2&#10;&#9;&#9;&#9;&#9;c-3-1.1-1.7-5.9,1.3-4.8c15.7,5.7,27.6,18.5,31.8,34.7C1285.8,703.6,1281,705,1280.2,701.8z M1288.3,683.1&#10;&#9;&#9;&#9;&#9;c-5.9-9.2-14.8-15.3-25.5-17.6c-3.2-0.7-1.8-5.5,1.3-4.8c11.9,2.6,21.9,9.7,28.5,19.9C1294.4,683.3,1290,685.8,1288.3,683.1z" transform="matrix(3.035615249851139, 0, 0, 3.035615249851139, -2966.072445045332, -1613.6937290343835)" style="stroke: rgb(0, 0, 0); stroke-width: 0; stroke-opacity: 0; fill-opacity: 1;"/><path fill="#8EA6AD" d="M1207.9,579.7c19.7,10.7,45.7,6.3,59.6,23.8c0.2-2,2.6-3.6,4.1-1.7c2.8,3.6,3.9,8,2.7,12.4&#10;&#9;&#9;&#9;&#9;c-0.1,0.4-0.3,0.7-0.5,1c1.5,3.2,3.1,6.4,4.4,9.7c3.4-12,0.4-25.6-9.1-34.3c-4.9-4.5-11-7.9-17.7-9c-7.4-1.2-14.8-0.3-22.2-0.5&#10;&#9;&#9;&#9;&#9;c-12.1-0.3-26.5-4-31.1-16.7c-0.1-0.4-0.2-0.7-0.4-1.1C1198.4,570,1202,576.5,1207.9,579.7z" transform="matrix(3.035615249851139, 0, 0, 3.035615249851139, -2966.072445045332, -1613.6937290343835)" style="stroke: rgb(0, 0, 0); stroke-width: 0; stroke-opacity: 0; fill-opacity: 1;"/><path fill="#8EA6AD" d="M1132.2,551.6c-13.1,12.3-26.1,31.7-13.1,48.1c1.2-15.8,4.9-32,15.9-43.3&#10;&#9;&#9;&#9;&#9;C1133.9,554.9,1133,553.3,1132.2,551.6z" transform="matrix(3.035615249851139, 0, 0, 3.035615249851139, -2966.072445045332, -1613.6937290343835)" style="stroke: rgb(0, 0, 0); stroke-width: 0; stroke-opacity: 0; fill-opacity: 1;"/><path fill="#8EA6AD" d="M1157.2,559.5c0.1-0.4,0.4-0.8,0.6-1c4.1-8.9,9.7-16.9,17.8-22.9c0.1-0.3,0.2-0.5,0.3-0.8&#10;&#9;&#9;&#9;&#9;c-9,3.7-17.6,8.9-23,16.9c-6.3,9.4-8.6,21.3-2.9,31.4c1.6-7.5,3.7-15,6.7-22.1C1156.9,560.5,1157.1,560,1157.2,559.5z" transform="matrix(3.035615249851139, 0, 0, 3.035615249851139, -2966.072445045332, -1613.6937290343835)" style="stroke: rgb(0, 0, 0); stroke-width: 0; stroke-opacity: 0; fill-opacity: 1;"/><path fill="#8EA6AD" d="M1181.8,558.2c-6.4,8.1-7.1,19.5-1.5,28.1c1-6.3,2.7-12.6,5.3-18.6c-0.1-0.7-0.2-1.4-0.2-2.1&#10;&#9;&#9;&#9;&#9;c-0.1-1.6,1.1-2.4,2.3-2.4c2.8-5.4,6.4-10.4,10.8-14.5C1192,549.9,1185.9,553,1181.8,558.2z" transform="matrix(3.035615249851139, 0, 0, 3.035615249851139, -2966.072445045332, -1613.6937290343835)" style="stroke: rgb(0, 0, 0); stroke-width: 0; stroke-opacity: 0; fill-opacity: 1;"/><path fill="#8EA6AD" d="M1263.9,820.6c-0.5,0.4-1.3,0.6-2.1,0.3c-1.5-0.5-3-1.2-4.3-2c-4.6-1.6-9-4.1-13-7.1&#10;&#9;&#9;&#9;&#9;c-0.1,0.2-0.2,0.4-0.4,0.5c-2.1,2.5-4.2,4.8-6.5,7.2c11.5,8.6,26.7,9.2,38.7,2.1c-0.5,0-1-0.1-1.5-0.1c-0.7-0.1-1.4-0.3-1.9-0.6&#10;&#9;&#9;&#9;&#9;C1269.9,821.2,1266.9,821.1,1263.9,820.6z" transform="matrix(3.035615249851139, 0, 0, 3.035615249851139, -2966.072445045332, -1613.6937290343835)" style="stroke: rgb(0, 0, 0); stroke-width: 0; stroke-opacity: 0; fill-opacity: 1;"/><path fill="#8EA6AD" d="M1233.9,661.7c-4-8.2-9.2-14.1-15.3-18.3c-20.7-9.4-46.6-8.2-68.7-6.8c-1.3,0.1-2.1-0.7-2.3-1.7&#10;&#9;&#9;&#9;&#9;c-4.2,0.2-8.3,0.3-12.3,0.2c-0.1,1.2-0.9,2.4-2.4,2.6c-15.1,1.1-28.5-6.8-35.3-18.9c-1.9-2.5-3.5-5.2-4.6-8&#10;&#9;&#9;&#9;&#9;c-2.7-6.8-4.1-16-1.4-23.3c-9.1,9.7-12.4,24.7-5.5,36.8c10.2,17.7,31.2,23.5,50.4,24.2c21.9,0.8,44.8-3,66.2,3.3&#10;&#9;&#9;&#9;&#9;c13.6,4,25.7,11.5,35.4,21.6C1236.9,669.3,1235.6,665.5,1233.9,661.7z" transform="matrix(3.035615249851139, 0, 0, 3.035615249851139, -2966.072445045332, -1613.6937290343835)" style="stroke: rgb(0, 0, 0); stroke-width: 0; stroke-opacity: 0; fill-opacity: 1;"/><path fill="#FFE0B1" d="M1072.5,762.9c-0.6,1.5-0.9,3.1-0.4,4.7c1,3.4,0.8-2,0.8-2.6C1072.8,764.3,1072.7,763.6,1072.5,762.9z" transform="matrix(3.035615249851139, 0, 0, 3.035615249851139, -2966.072445045332, -1613.6937290343835)" style="stroke: rgb(0, 0, 0); stroke-width: 0; stroke-opacity: 0; fill-opacity: 1;"/><path fill="#FFE0B1" d="M1061.9,758.1c-0.9,10,3.6,25.3,15.9,23.5c-0.5-13.7,2.6-27.1,6.1-40.3&#10;&#9;&#9;&#9;&#9;C1073.2,736.1,1062.9,747.5,1061.9,758.1z M1075,773.9c-3.4,1.9-7.2-1.7-7.8-5c-0.8-4.6,0.3-8.5,3.2-12c-0.7-1.4-1.5-2.7-2.5-4&#10;&#9;&#9;&#9;&#9;c-2-2.5,1.6-6.1,3.5-3.5c3.2,4.1,5.3,8.5,6.1,13.7C1078.2,766.7,1078.7,771.8,1075,773.9z" transform="matrix(3.035615249851139, 0, 0, 3.035615249851139, -2966.072445045332, -1613.6937290343835)" style="stroke: rgb(0, 0, 0); stroke-width: 0; stroke-opacity: 0; fill-opacity: 1;"/><path fill="#FFCD85" d="M1098.2,814.4c1.2,1.6,2.4,3.2,3.7,4.8c17.3,20.2,44.4,29.4,70.6,25.3c25.5-4,47.6-18,64.3-37.4&#10;&#9;&#9;&#9;&#9;c-3.4-2-6.3-4.6-8.7-8C1196.2,834.9,1134.6,847.8,1098.2,814.4z" transform="matrix(3.035615249851139, 0, 0, 3.035615249851139, -2966.072445045332, -1613.6937290343835)" style="stroke: rgb(0, 0, 0); stroke-width: 0; stroke-opacity: 0; fill-opacity: 1;"/><path fill="#FFCD85" d="M1273,761.3c-3.3-5.3-8.9-8.3-15.3-9.1c-6.8,2.6-12.3,7.2-17.3,12.4C1250,758.9,1262.2,758.2,1273,761.3z&#10;&#9;&#9;&#9;&#9;" transform="matrix(3.035615249851139, 0, 0, 3.035615249851139, -2966.072445045332, -1613.6937290343835)" style="stroke: rgb(0, 0, 0); stroke-width: 0; stroke-opacity: 0; fill-opacity: 1;"/><path fill="#FFCD85" d="M1176.9,669.7c15-2.1,30.1-3.6,43.8,0.7c-11.5-7.9-25.1-12.3-39.6-13c-20-1.1-41.1,2.2-61-1.6&#10;&#9;&#9;&#9;&#9;c-0.1,0.1-0.1,0.3-0.2,0.4c-2.6,4.2-4.6,8.7-6.5,13.2C1133.6,677.9,1156.2,671.6,1176.9,669.7z" transform="matrix(3.035615249851139, 0, 0, 3.035615249851139, -2966.072445045332, -1613.6937290343835)" style="stroke: rgb(0, 0, 0); stroke-width: 0; stroke-opacity: 0; fill-opacity: 1;"/><path fill="#FFE0B1" d="M1274.7,764.8c-0.5-1.2-1-2.4-1.7-3.5c-10.8-3.2-22.9-2.4-32.6,3.2c-3.4,3.5-6.5,7.3-9.5,11&#10;&#9;&#9;&#9;&#9;c-2.5,3-7.9,0.6-7.7-3.2c1-15.8,8.8-29.2,17.3-42c-2.3-3.1-5.8-4.8-8.5-7.6c-2.8-3-4.9-6.7-4.9-10.9c-0.1-10.1,7.1-16.9,9.7-26&#10;&#9;&#9;&#9;&#9;c-4.6-6.2-10.1-11.3-16.1-15.5c-13.8-4.3-28.8-2.7-43.8-0.7c-20.8,1.9-43.3,8.2-63.4-0.3c-2,5-3.6,10-5.1,15.2&#10;&#9;&#9;&#9;&#9;c9.6-3.8,20.8-1.8,28.9,5.9c4.2,4-2.2,10.4-6.4,6.4c-7.6-7.2-18.7-6.8-26,0.7c0,0,0,0-0.1,0.1c-1.8,6.8-3.6,13.7-5.5,20.5&#10;&#9;&#9;&#9;&#9;c0,0.3,0.1,0.7,0.1,1c0.2,1.6-0.4,2.7-1.3,3.4c-1.6,6.1-3.3,12.2-4.9,18.3c-3.9,14.7-8.2,30.2-6.2,45.5c1.3,9.9,5.2,19.7,11,28&#10;&#9;&#9;&#9;&#9;c36.5,33.4,98.1,20.6,129.9-15.3c0,0,0-0.1-0.1-0.1c-3.3-4.8,4.5-9.3,7.8-4.5c10.1,14.5,30.3,6.3,36.8-7&#10;&#9;&#9;&#9;&#9;C1276,780.6,1277.4,772.1,1274.7,764.8z M1100.2,724.8c2.7-3,6.5-4.2,10.2-3.8c0.8-0.2,1.6-0.3,2.5-0.3c12.9,0,12.9,20,0,20&#10;&#9;&#9;&#9;&#9;c-7.4,0-10.5-6.6-9.5-12.2C1101.3,730.5,1098.1,727.1,1100.2,724.8z M1198.3,785.3c-6.8,12.2-19.8,21.1-34,21.6&#10;&#9;&#9;&#9;&#9;c-13.7,0.5-26.4-5.7-34.7-16.3c-13.4,11.8-34.3,3.1-35.3-15c-0.1-1.3,1.2-2.6,2.5-2.5c6,0.5,11.3-2,14.6-7.1&#10;&#9;&#9;&#9;&#9;c0-0.1,0.1-0.1,0.1-0.1c-0.1-0.2-0.2-0.4-0.4-0.7c-2-4.2-0.2-9.1,3.4-11.7c2.6-1.9,5.1,2.4,2.5,4.3c-3.8,2.8-1.1,7.5,2.7,7.5&#10;&#9;&#9;&#9;&#9;c0-1.4,0.1-2.9,0.5-4.3c4.7-15.9,25.5-29.8,18.4-47.9c-1.2-3,3.7-4.3,4.8-1.3c4.5,11.5-1.4,22.9-7.9,32.2&#10;&#9;&#9;&#9;&#9;c-3.8,5.5-9.1,11.7-10.5,18.4c-1.1,5.3,2.3,10,8.1,8c3.2-1.1,5.7-3.1,8.3-5.3c0.3-0.2,0.5-0.4,0.8-0.5c0.9-0.8,2.2-1,3.3,0.1&#10;&#9;&#9;&#9;&#9;c2.8,3.2,7.7,3.1,11,0.7c2-1.5,4.2-4.6,3.2-7.2c-0.8-2-3-3-4.8-1.9c-2.7,1.7-5.2-2.6-2.5-4.3c3.6-2.3,8.1-1.1,10.7,2.1&#10;&#9;&#9;&#9;&#9;c2.7,3.2,2.2,8.5-0.3,11.7c-0.2,0.3-0.4,0.5-0.7,0.8c4.7,2.3,6.4,8.3,10.5,12c6,5.3,14.7,6.8,22,3.3&#10;&#9;&#9;&#9;&#9;C1197.1,780.8,1199.6,783,1198.3,785.3z M1175.2,728.8c-2.7,1.8-5.2-2.5-2.5-4.3c4.9-3.4,11.3-3.1,16.1-0.1&#10;&#9;&#9;&#9;&#9;c1.6,0.8,2.8,2,3.7,3.4c0.2,0.2,0.3,0.4,0.5,0.6c0.3,0.4,0.4,0.9,0.4,1.3c2.1,5.9-0.9,13.7-9,13.7c-8.7,0-11.5-9.1-8.5-15&#10;&#9;&#9;&#9;&#9;C1175.6,728.6,1175.4,728.7,1175.2,728.8z M1209.8,707c-7.2-11.5-21.6-14.6-33.1-7.5c-5,3.1-9.5-4.7-4.5-7.8&#10;&#9;&#9;&#9;&#9;c15.7-9.7,35.7-4.8,45.5,10.7C1220.7,707.4,1212.9,711.9,1209.8,707z M1264.9,771.9c-3.5-0.3-6.1,1.3-8,3.8&#10;&#9;&#9;&#9;&#9;c4.3,0.8,7.4,5.3,6.6,10c-0.8,5.1-5.9,12.2-12,9.6c-7.1-3.1-4.2-11.5-1.9-16.8c2.8-6.3,7.7-12.3,15.3-11.6&#10;&#9;&#9;&#9;&#9;C1268.1,767.2,1268.1,772.2,1264.9,771.9z" transform="matrix(3.035615249851139, 0, 0, 3.035615249851139, -2966.072445045332, -1613.6937290343835)" style="stroke: rgb(0, 0, 0); stroke-width: 0; stroke-opacity: 0; fill-opacity: 1;"/><path fill="#8EA6AD" d="M1107.5,776c-2.4,1.2-5,1.9-7.8,2.1c2.4,12,16.7,17.1,26.3,9.1C1118.1,786.7,1110,783.4,1107.5,776z" transform="matrix(3.035615249851139, 0, 0, 3.035615249851139, -2966.072445045332, -1613.6937290343835)" style="stroke: rgb(0, 0, 0); stroke-width: 0; stroke-opacity: 0; fill-opacity: 1;"/><path fill="#8EA6AD" d="M1177.4,787.2c-11.9,10.1-30,10.5-42.7,1.8c14.7,17.2,41.3,16.4,55.3-0.5&#10;&#9;&#9;&#9;&#9;C1185.8,789.2,1181.5,788.8,1177.4,787.2z" transform="matrix(3.035615249851139, 0, 0, 3.035615249851139, -2966.072445045332, -1613.6937290343835)" style="stroke: rgb(0, 0, 0); stroke-width: 0; stroke-opacity: 0; fill-opacity: 1;"/><path fill="#77919D" d="M1177.4,787.2c-0.3-0.1-0.5-0.2-0.8-0.3c-3.6-1.6-6.6-3.7-9.1-6.7c-2.9-3.3-4.4-9.7-9.7-9.4&#10;&#9;&#9;&#9;&#9;c-0.3,0-0.5,0-0.7-0.1c-4.3,2.1-9.4,2.1-13.3-0.9c-5.1,4.1-10.6,7.3-17.4,5.2c-2.5-0.8-4.3-2.5-5.3-4.7c-2,0.3-4.1-0.1-5.8-1&#10;&#9;&#9;&#9;&#9;c-2.1,2.9-4.7,5.2-7.7,6.7c2.5,7.4,10.6,10.7,18.4,11.2c0.4-0.3,0.7-0.6,1.1-0.9c0.7-0.7,1.5-0.8,2.3-0.6&#10;&#9;&#9;&#9;&#9;c1.1-0.5,2.5-0.4,3.4,0.8c0.1,0.2,0.2,0.3,0.3,0.5c0.3-0.1,0.6-0.1,0.9-0.2c-0.3,0.1-0.6,0.1-0.9,0.2c0.5,0.7,1.1,1.4,1.7,2.1&#10;&#9;&#9;&#9;&#9;C1147.4,797.7,1165.6,797.3,1177.4,787.2z" transform="matrix(3.035615249851139, 0, 0, 3.035615249851139, -2966.072445045332, -1613.6937290343835)" style="stroke: rgb(0, 0, 0); stroke-width: 0; stroke-opacity: 0; fill-opacity: 1;"/><path fill="#77919D" d="M1109.9,653.1c-1.5-0.5-3-1.1-4.4-1.7c-3.2,10.8-5.4,21.8-6.4,32.9c3-10.7,6.5-21.2,12-30.8&#10;&#9;&#9;&#9;&#9;C1110.7,653.4,1110.3,653.3,1109.9,653.1z" transform="matrix(3.035615249851139, 0, 0, 3.035615249851139, -2966.072445045332, -1613.6937290343835)" style="stroke: rgb(0, 0, 0); stroke-width: 0; stroke-opacity: 0; fill-opacity: 1;"/><path fill="#FFE0B1" d="M1256.6,789.3c2.3-2.6,3.2-10.7-2.6-8.4c0,0-0.1,0-0.1,0c-0.5,1.2-0.9,2.4-1.3,3.6&#10;&#9;&#9;&#9;&#9;c-0.5,1.5-1.4,3.8-0.3,5.3C1253.9,791.1,1255.3,790.9,1256.6,789.3z" transform="matrix(3.035615249851139, 0, 0, 3.035615249851139, -2966.072445045332, -1613.6937290343835)" style="stroke: rgb(0, 0, 0); stroke-width: 0; stroke-opacity: 0; fill-opacity: 1;"/><path fill="#55707A" d="M1184.3,743.4c8.1,0,11.1-7.9,9-13.7c0-0.4-0.1-0.9-0.4-1.3c-0.1-0.2-0.3-0.4-0.5-0.6&#10;&#9;&#9;&#9;&#9;c-0.9-1.4-2.1-2.6-3.7-3.4c-4.8-3.1-11.1-3.3-16.1,0.1c-2.6,1.8-0.1,6.2,2.5,4.3c0.2-0.1,0.4-0.2,0.6-0.4&#10;&#9;&#9;&#9;&#9;C1172.8,734.4,1175.6,743.4,1184.3,743.4z" transform="matrix(3.035615249851139, 0, 0, 3.035615249851139, -2966.072445045332, -1613.6937290343835)" style="stroke: rgb(0, 0, 0); stroke-width: 0; stroke-opacity: 0; fill-opacity: 1;"/><path fill="#55707A" d="M1172.1,691.7c-4.9,3-0.4,10.8,4.5,7.8c11.5-7.1,25.9-4,33.1,7.5c3.1,4.9,10.9,0.4,7.8-4.5&#10;&#9;&#9;&#9;&#9;C1207.8,686.9,1187.9,682,1172.1,691.7z" transform="matrix(3.035615249851139, 0, 0, 3.035615249851139, -2966.072445045332, -1613.6937290343835)" style="stroke: rgb(0, 0, 0); stroke-width: 0; stroke-opacity: 0; fill-opacity: 1;"/><path fill="#55707A" d="M1103.5,728.6c-1.1,5.6,2,12.2,9.5,12.2c12.9,0,12.9-20,0-20c-0.9,0-1.7,0.1-2.5,0.3&#10;&#9;&#9;&#9;&#9;c-3.7-0.4-7.5,0.8-10.2,3.8C1098.1,727.1,1101.3,730.5,1103.5,728.6z" transform="matrix(3.035615249851139, 0, 0, 3.035615249851139, -2966.072445045332, -1613.6937290343835)" style="stroke: rgb(0, 0, 0); stroke-width: 0; stroke-opacity: 0; fill-opacity: 1;"/><path fill="#55707A" d="M1251.5,795.3c6.1,2.6,11.2-4.5,12-9.6c0.8-4.7-2.4-9.2-6.6-10c1.9-2.4,4.5-4.1,8-3.8&#10;&#9;&#9;&#9;&#9;c3.2,0.3,3.2-4.7,0-5c-7.6-0.7-12.5,5.2-15.3,11.6C1247.3,783.8,1244.4,792.2,1251.5,795.3z M1252.6,784.5&#10;&#9;&#9;&#9;&#9;c0.4-1.1,0.8-2.4,1.3-3.6c0,0,0.1,0,0.1,0c5.8-2.3,4.8,5.8,2.6,8.4c-1.3,1.6-2.7,1.8-4.3,0.5&#10;&#9;&#9;&#9;&#9;C1251.3,788.3,1252.2,786,1252.6,784.5z" transform="matrix(3.035615249851139, 0, 0, 3.035615249851139, -2966.072445045332, -1613.6937290343835)" style="stroke: rgb(0, 0, 0); stroke-width: 0; stroke-opacity: 0; fill-opacity: 1;"/><path fill="#55707A" d="M1071.5,749.4c-2-2.5-5.5,1-3.5,3.5c1,1.3,1.8,2.6,2.5,4c-2.9,3.5-3.9,7.5-3.2,12c0.5,3.2,4.3,6.9,7.8,5&#10;&#9;&#9;&#9;&#9;c3.7-2.1,3.2-7.2,2.6-10.8C1076.8,757.9,1074.7,753.5,1071.5,749.4z M1072.1,767.6c-0.5-1.5-0.2-3.2,0.4-4.7&#10;&#9;&#9;&#9;&#9;c0.1,0.7,0.3,1.4,0.3,2.1C1072.9,765.6,1073.1,771,1072.1,767.6z" transform="matrix(3.035615249851139, 0, 0, 3.035615249851139, -2966.072445045332, -1613.6937290343835)" style="stroke: rgb(0, 0, 0); stroke-width: 0; stroke-opacity: 0; fill-opacity: 1;"/><path fill="#55707A" d="M1194.9,781.9c-7.3,3.6-15.9,2.1-22-3.3c-4.1-3.7-5.8-9.7-10.5-12c0.2-0.3,0.4-0.5,0.7-0.8&#10;&#9;&#9;&#9;&#9;c2.4-3.2,2.9-8.5,0.3-11.7c-2.7-3.2-7.1-4.5-10.7-2.1c-2.7,1.7-0.2,6.1,2.5,4.3c1.8-1.2,4-0.1,4.8,1.9c1,2.6-1.2,5.7-3.2,7.2&#10;&#9;&#9;&#9;&#9;c-3.3,2.5-8.2,2.5-11-0.7c-1-1.2-2.4-0.9-3.3-0.1c-0.3,0.1-0.6,0.2-0.8,0.5c-2.6,2.2-5.1,4.1-8.3,5.3c-5.7,2-9.2-2.7-8.1-8&#10;&#9;&#9;&#9;&#9;c1.4-6.7,6.7-12.9,10.5-18.4c6.5-9.3,12.4-20.8,7.9-32.2c-1.2-3-6-1.7-4.8,1.3c7.1,18.2-13.8,32.1-18.4,47.9&#10;&#9;&#9;&#9;&#9;c-0.4,1.4-0.6,2.8-0.5,4.3c-3.8,0-6.5-4.7-2.7-7.5c2.6-1.9,0.1-6.2-2.5-4.3c-3.6,2.6-5.4,7.5-3.4,11.7c0.1,0.2,0.2,0.4,0.4,0.7&#10;&#9;&#9;&#9;&#9;c0,0-0.1,0.1-0.1,0.1c-3.3,5.1-8.6,7.5-14.6,7.1c-1.3-0.1-2.6,1.2-2.5,2.5c1,18.2,21.8,26.9,35.3,15&#10;&#9;&#9;&#9;&#9;c8.4,10.6,21.1,16.8,34.7,16.3c14.1-0.5,27.2-9.4,34-21.6C1199.6,783,1197.1,780.8,1194.9,781.9z M1132.7,786.4&#10;&#9;&#9;&#9;&#9;c-0.9-1.2-2.3-1.3-3.4-0.8c-0.7-0.2-1.6-0.1-2.3,0.6c-9.5,9.3-24.9,4.3-27.3-8.2c6.3-0.4,11.9-3.6,15.6-8.8&#10;&#9;&#9;&#9;&#9;c1.8,0.9,3.8,1.3,5.8,1c1,2.1,2.8,3.9,5.3,4.7c6.8,2.1,12.3-1.1,17.4-5.2c3.9,3.1,9,3,13.3,0.9c0.2,0.1,0.5,0.1,0.7,0.1&#10;&#9;&#9;&#9;&#9;c5.4-0.2,6.8,6.1,9.7,9.4c2.5,2.9,5.5,5.1,9.1,6.7c4.3,1.9,8.9,2.4,13.4,1.7C1175.3,806.2,1146.8,806.3,1132.7,786.4z" transform="matrix(3.035615249851139, 0, 0, 3.035615249851139, -2966.072445045332, -1613.6937290343835)" style="stroke: rgb(0, 0, 0); stroke-width: 0; stroke-opacity: 0; fill-opacity: 1;"/><path fill="#55707A" d="M1320,769.7c-7.1,1.8-13.7-2.1-17.8-7.7c-5.4-7.3-4.8-17.2-2.9-25.7c4-17.8,14.7-33.3,19.7-50.8&#10;&#9;&#9;&#9;&#9;c4.2-14.5,4.2-31.7-5-44.4c-6.2-8.5-16.6-14.3-27.1-14.1c5.4-20.1-3.7-41.6-23.4-51c-12-5.7-25-3.4-37.8-4.1&#10;&#9;&#9;&#9;&#9;c-6.9-0.4-14-2.7-18-8.6c-3.1-4.6-1.8-13,4.8-13.4c4.5-0.3,5.5-6,2.9-8.2c-0.5-0.9-1.4-1.6-2.8-1.9c-10.6-1.9-21.6,0-30.3,5.9&#10;&#9;&#9;&#9;&#9;c0.3-5,2.4-9.7,5.8-13.5c1.5-1.6,1.5-3.6,0.7-5.1c0.1-2.7-2.1-5.6-5.5-4.5c-14.8,4.6-28.7,11.7-38.1,24.5c-1,1.4-1.9,2.8-2.7,4.3&#10;&#9;&#9;&#9;&#9;c-1.8-2.6-3-5.5-3.8-8.8c-0.9-3.6-5-4-7.5-2c-10.1,8.2-18.9,17.6-23.6,29.9c-1.4,3.7-2.2,7.6-2.4,11.5c-0.6-1.2-0.9-2.6-0.6-3.9&#10;&#9;&#9;&#9;&#9;c0.7-3.3-1.9-5.5-4.5-5.6c-1.1-0.5-2.5-0.6-4,0.1c-15.6,7.7-24.9,25.9-22.3,43.1c2.2,14,11.7,24.7,23.5,31.6&#10;&#9;&#9;&#9;&#9;c-7,22.6-9.5,46.3-7,69.8c-1.4,5.1-2.7,10.2-4.1,15.3c-6-2.3-12.6-1.5-18.6,1.3c-8.2,3.8-12.8,13.2-14.3,21.6&#10;&#9;&#9;&#9;&#9;c-2.9,16.3,7.1,37.5,25.5,35.1c1.8,10,5.9,19.6,11.5,28.1c14.6,21.9,39.2,33.8,65.1,35.5c27.2,1.7,53.3-9.5,73.8-26.8&#10;&#9;&#9;&#9;&#9;c0.6-0.5,1.2-1.1,1.8-1.6c17.8,14.1,43.4,12.7,59.5-4c0.4-0.4,0.6-0.8,0.8-1.2c11.3-2.4,21.7-8.4,29.4-17.2c2-2.3,1.6-6.9-2-7.5&#10;&#9;&#9;&#9;&#9;c-3.5-0.6-6.7-1.6-9.7-3.2c6.6-3.6,12.2-8.8,16.4-15.2c1.2-1.9,0.8-3.7-0.3-4.9C1324.6,770.6,1322.6,769.1,1320,769.7z&#10;&#9;&#9;&#9;&#9; M1077.8,781.6c-12.3,1.8-16.8-13.5-15.9-23.5c1-10.7,11.3-22,22-16.8C1080.4,754.5,1077.3,767.9,1077.8,781.6z M1172.5,844.4&#10;&#9;&#9;&#9;&#9;c-26.2,4.1-53.4-5.1-70.6-25.3c-7.8-9.1-13.1-20.8-14.6-32.8c-2-15.4,2.2-30.8,6.2-45.5c1.6-6.1,3.3-12.2,4.9-18.3&#10;&#9;&#9;&#9;&#9;c0.9-0.7,1.4-1.8,1.3-3.4c0-0.3-0.1-0.7-0.1-1c1.8-6.8,3.6-13.7,5.5-20.5c0,0,0,0,0.1-0.1c7.3-7.5,18.4-7.9,26-0.7&#10;&#9;&#9;&#9;&#9;c4.2,4,10.6-2.4,6.4-6.4c-8.1-7.7-19.3-9.7-28.9-5.9c2.8-9.9,6.2-19.5,11.6-28.4c0.1-0.1,0.2-0.3,0.2-0.4c19.9,3.8,41,0.5,61,1.6&#10;&#9;&#9;&#9;&#9;c22.1,1.2,42.4,10.7,55.7,28.6c-2.6,9.1-9.8,15.9-9.7,26c0,4.2,2.2,7.9,4.9,10.9c2.6,2.8,6.2,4.5,8.5,7.6&#10;&#9;&#9;&#9;&#9;c-8.5,12.9-16.4,26.3-17.3,42c-0.2,3.7,5.2,6.2,7.7,3.2c7.5-9.1,15.4-19,26.8-23.3c7.7,1,14.1,5,17,12.6&#10;&#9;&#9;&#9;&#9;c2.8,7.3,1.3,15.8-2.1,22.6c-6.5,13.3-26.7,21.4-36.8,7c-3.3-4.7-11.1-0.2-7.8,4.5c2.4,3.4,5.4,6.1,8.8,8.1&#10;&#9;&#9;&#9;&#9;C1220.1,826.4,1198,840.5,1172.5,844.4z M1099.1,684.3c1-11.1,3.2-22.1,6.4-32.9c1.5,0.6,2.9,1.2,4.4,1.7&#10;&#9;&#9;&#9;&#9;c0.4,0.1,0.8,0.3,1.2,0.4C1105.6,663.2,1102.1,673.7,1099.1,684.3z M1292.6,788.9c-5.7,0.9-3.3,9.6,2.4,8.7&#10;&#9;&#9;&#9;&#9;c1.3-0.2,2.6-0.5,3.9-0.8c0.2,0.3,0.5,0.5,0.8,0.7c2.8,2.1,5.9,3.8,9.1,5c-9.5,7.7-21.5,11.3-34,10c-5.8-0.6-5.7,8.4,0,9&#10;&#9;&#9;&#9;&#9;c0.5,0.1,1,0.1,1.5,0.1c-12,7.1-27.2,6.5-38.7-2.1c2.2-2.3,4.4-4.7,6.5-7.2c0.6-0.7,0.9-1.4,1-2.1c1.3,0.3,2.5,0.5,3.8,0.6&#10;&#9;&#9;&#9;&#9;c0,0.1,0,0.1,0.1,0.2c3.1,4.7,7.4,8.1,12.7,9.9c3.1,1.1,4.4-3.8,1.3-4.8c-3.1-1.1-5.9-2.9-8-5.4c8.6-1,15.9-5.9,21.2-12.6&#10;&#9;&#9;&#9;&#9;c2.6,3.2,6.3,5.5,10.4,6.4c3.1,0.7,4.5-4.1,1.3-4.8c-3.7-0.8-6.7-2.8-8.7-5.8c0.1-0.2,0.3-0.4,0.4-0.6c3.3-5.5,5.1-12,5.3-18.5&#10;&#9;&#9;&#9;&#9;c1.2,1.9,2.5,3.7,4,5.4c2.1,2.4,5.6-1.1,3.5-3.5c-13.7-15.8-10.3-37.9-7.1-56.8c0.5-3.2-4.3-4.5-4.8-1.3&#10;&#9;&#9;&#9;&#9;c-2,11.2-3.8,23.2-2.7,34.6c-2.1-2.4-4.5-4.3-7.3-5.8c-0.9-7.8-0.1-15.4,2.1-22.9c0.9-3.1-3.9-4.4-4.8-1.3&#10;&#9;&#9;&#9;&#9;c-2.2,7.3-2.9,14.6-2.5,22c-2.4-0.8-4.9-1.4-7.4-1.7c-0.4-0.1-0.8-0.2-1.3-0.1c-0.2,0-0.4,0-0.6-0.1c-1.7-0.1-2.8,0.5-3.5,1.6&#10;&#9;&#9;&#9;&#9;c-6.3,2.9-11.7,6.9-16.6,11.7c3.4-8.3,8.6-16.1,13.6-23.5c1.2-1.9,0.9-3.7-0.3-4.9c-0.1-0.2-0.1-0.4-0.2-0.5&#10;&#9;&#9;&#9;&#9;c-1.4-2.7-3.4-4.8-5.7-6.8c-2.9-2.4-6.9-4.5-7.4-8.7c-0.6-4.7,2.5-9.3,4.7-13.1c1.9-3.3,3.6-6.6,4.7-10.2c1.4-1.2,2-3.2,0.6-5.2&#10;&#9;&#9;&#9;&#9;c-10.5-15.3-25.7-26.4-43.5-31.6c-21.4-6.3-44.3-2.5-66.2-3.3c-19.2-0.7-40.2-6.5-50.4-24.2c-8-13.9-2.3-31.8,10.1-40.9&#10;&#9;&#9;&#9;&#9;c1.3,4.9,5,8.9,10.1,10.5c0.1,0,0.2,0.1,0.3,0.1c1.3,4.5,3.4,8.8,6.5,12.6c3.6,4.5,10-1.9,6.4-6.4c-13.3-16.5-0.3-36,12.9-48.4&#10;&#9;&#9;&#9;&#9;c1.6,3.5,3.8,6.7,6.5,9.6c-2.2,9.4-1,19.6,4.3,27.6c3.2,4.8,10.9,0.3,7.8-4.5c-6.7-10.3-4.4-22.9,2.1-32.7&#10;&#9;&#9;&#9;&#9;c5.4-7.9,14-13.2,23-16.9c-2.4,5.5-3.1,11.7-2.1,18c0,0.3,0.1,0.5,0.2,0.7c-8,10.6-8.8,26.1-1.5,37.3c3.2,4.8,11,0.3,7.8-4.5&#10;&#9;&#9;&#9;&#9;c-5.6-8.6-4.9-20.1,1.5-28.1c4.4-5.6,11.1-8.8,18.1-9.8c-2.9,4.5-3.7,10.4-1.7,15.9c4.6,12.8,19,16.4,31.1,16.7&#10;&#9;&#9;&#9;&#9;c7.4,0.2,14.8-0.7,22.2,0.5c6.7,1.1,12.8,4.5,17.7,9c10.8,9.9,13.2,26.1,7.3,39.2c-2.6,2.9-0.6,8.4,3.5,7.6c1,0.1,2-0.1,2.8-0.8&#10;&#9;&#9;&#9;&#9;c14.3-3.7,26.2,8.9,29.1,22.1c4,17.9-5.6,36.2-12.7,51.9c-6.8,15.1-13.5,31.7-8.5,48.4c3,10.1,12.1,18.1,22.2,19.7&#10;&#9;&#9;&#9;&#9;C1307.5,784.2,1300.5,787.6,1292.6,788.9z" transform="matrix(3.035615249851139, 0, 0, 3.035615249851139, -2966.072445045332, -1613.6937290343835)" style="stroke: rgb(0, 0, 0); stroke-width: 0; stroke-opacity: 0; fill-opacity: 1;"/><path fill="#55707A" d="M1149.9,631.6c-3.2,0.2-3.2,5.2,0,5c31.4-2,70.6-3.6,91.3,25c1.9,2.6,6.2,0.1,4.3-2.5&#10;&#9;&#9;&#9;&#9;C1223.5,628.8,1183.4,629.5,1149.9,631.6z" transform="matrix(3.035615249851139, 0, 0, 3.035615249851139, -2966.072445045332, -1613.6937290343835)" style="stroke: rgb(0, 0, 0); stroke-width: 0; stroke-opacity: 0; fill-opacity: 1;"/><path fill="#55707A" d="M1247.8,644.7c-12.2-17.2-32.3-27.4-53.4-26.9c-3.2,0.1-3.2,5.1,0,5c19.3-0.5,37.9,8.6,49.1,24.4&#10;&#9;&#9;&#9;&#9;C1245.3,649.8,1249.7,647.3,1247.8,644.7z" transform="matrix(3.035615249851139, 0, 0, 3.035615249851139, -2966.072445045332, -1613.6937290343835)" style="stroke: rgb(0, 0, 0); stroke-width: 0; stroke-opacity: 0; fill-opacity: 1;"/><path fill="#55707A" d="M1232.3,620.2c5.6,5.5,11.3,11,16.9,16.6c2.3,2.3,5.8-1.3,3.5-3.5c-5.6-5.5-11.3-11-16.9-16.6&#10;&#9;&#9;&#9;&#9;C1233.5,614.4,1230,617.9,1232.3,620.2z" transform="matrix(3.035615249851139, 0, 0, 3.035615249851139, -2966.072445045332, -1613.6937290343835)" style="stroke: rgb(0, 0, 0); stroke-width: 0; stroke-opacity: 0; fill-opacity: 1;"/><path fill="#55707A" d="M1222.9,601c17.9,1.8,32,15.7,34.1,33.6c0.4,3.2,5.4,3.2,5,0c-2.4-20.8-18.2-36.5-39.1-38.6&#10;&#9;&#9;&#9;&#9;C1219.7,595.7,1219.7,600.7,1222.9,601z" transform="matrix(3.035615249851139, 0, 0, 3.035615249851139, -2966.072445045332, -1613.6937290343835)" style="stroke: rgb(0, 0, 0); stroke-width: 0; stroke-opacity: 0; fill-opacity: 1;"/><path fill="#55707A" d="M1247.4,596.8c10,6.5,15.9,17.4,16,29.3c0,3.2,5,3.2,5,0c-0.2-13.7-7.1-26.1-18.5-33.6&#10;&#9;&#9;&#9;&#9;C1247.2,590.8,1244.7,595.1,1247.4,596.8z" transform="matrix(3.035615249851139, 0, 0, 3.035615249851139, -2966.072445045332, -1613.6937290343835)" style="stroke: rgb(0, 0, 0); stroke-width: 0; stroke-opacity: 0; fill-opacity: 1;"/><path fill="#55707A" d="M1269.5,612.9c-0.8,3.1,4,4.4,4.8,1.3c1.2-4.5,0.1-8.8-2.7-12.4c-2-2.5-5.5,1-3.5,3.5&#10;&#9;&#9;&#9;&#9;C1269.8,607.5,1270.2,610.4,1269.5,612.9z" transform="matrix(3.035615249851139, 0, 0, 3.035615249851139, -2966.072445045332, -1613.6937290343835)" style="stroke: rgb(0, 0, 0); stroke-width: 0; stroke-opacity: 0; fill-opacity: 1;"/><path fill="#55707A" d="M1132.8,632.6c-19.4,1.5-35.5-13.5-35.1-33c0.1-3.2-4.9-3.2-5,0c-0.4,22.1,18,39.7,40.1,38&#10;&#9;&#9;&#9;&#9;C1136,637.4,1136,632.4,1132.8,632.6z" transform="matrix(3.035615249851139, 0, 0, 3.035615249851139, -2966.072445045332, -1613.6937290343835)" style="stroke: rgb(0, 0, 0); stroke-width: 0; stroke-opacity: 0; fill-opacity: 1;"/><path fill="#55707A" d="M1130.6,577.2c0.5-3.2-4.3-4.5-4.8-1.3c-2.4,14.3,2,28.7,12.3,38.9c2.3,2.3,5.8-1.3,3.5-3.5&#10;&#9;&#9;&#9;&#9;C1132.7,602.4,1128.5,589.8,1130.6,577.2z" transform="matrix(3.035615249851139, 0, 0, 3.035615249851139, -2966.072445045332, -1613.6937290343835)" style="stroke: rgb(0, 0, 0); stroke-width: 0; stroke-opacity: 0; fill-opacity: 1;"/><path fill="#55707A" d="M1155.6,609.5c-4.7-2.2-8-6-9.3-11c-0.8-3.1-5.6-1.8-4.8,1.3c1.6,6.2,5.8,11.3,11.6,14&#10;&#9;&#9;&#9;&#9;C1156,615.1,1158.6,610.8,1155.6,609.5z" transform="matrix(3.035615249851139, 0, 0, 3.035615249851139, -2966.072445045332, -1613.6937290343835)" style="stroke: rgb(0, 0, 0); stroke-width: 0; stroke-opacity: 0; fill-opacity: 1;"/><path fill="#55707A" d="M1176,610.9c2.8,1.7,5.3-2.6,2.5-4.3c-15.8-9.6-22.4-28.2-16.5-45.7c1-3.1-3.8-4.4-4.8-1.3&#10;&#9;&#9;&#9;&#9;C1150.7,579.1,1158.4,600.2,1176,610.9z" transform="matrix(3.035615249851139, 0, 0, 3.035615249851139, -2966.072445045332, -1613.6937290343835)" style="stroke: rgb(0, 0, 0); stroke-width: 0; stroke-opacity: 0; fill-opacity: 1;"/><path fill="#55707A" d="M1207.8,592.6c3.1,0.7,4.5-4.1,1.3-4.8c-10.5-2.4-18.2-11.4-18.7-22.2c-0.2-3.2-5.2-3.2-5,0&#10;&#9;&#9;&#9;&#9;C1186,578.6,1195.1,589.7,1207.8,592.6z" transform="matrix(3.035615249851139, 0, 0, 3.035615249851139, -2966.072445045332, -1613.6937290343835)" style="stroke: rgb(0, 0, 0); stroke-width: 0; stroke-opacity: 0; fill-opacity: 1;"/><path fill="#55707A" d="M1191.7,591.3c-2.1-2.4-5.7,1.1-3.5,3.5c3.9,4.4,8.6,7.6,14,9.7c3,1.2,4.3-3.6,1.3-4.8&#10;&#9;&#9;&#9;&#9;C1198.9,597.9,1195,595,1191.7,591.3z" transform="matrix(3.035615249851139, 0, 0, 3.035615249851139, -2966.072445045332, -1613.6937290343835)" style="stroke: rgb(0, 0, 0); stroke-width: 0; stroke-opacity: 0; fill-opacity: 1;"/><path fill="#55707A" d="M1245.6,702.3c-2.4-2.2-5.9,1.4-3.5,3.5c5.6,5.1,9.8,11.2,12.3,18.4c1.1,3,5.9,1.7,4.8-1.3&#10;&#9;&#9;&#9;&#9;C1256.4,715,1251.9,708,1245.6,702.3z" transform="matrix(3.035615249851139, 0, 0, 3.035615249851139, -2966.072445045332, -1613.6937290343835)" style="stroke: rgb(0, 0, 0); stroke-width: 0; stroke-opacity: 0; fill-opacity: 1;"/><path fill="#55707A" d="M1255.2,699.3c-2-2.5-5.5,1-3.5,3.5c3.3,4.2,6.6,8.4,10,12.5c2,2.5,5.5-1,3.5-3.5&#10;&#9;&#9;&#9;&#9;C1261.9,707.6,1258.6,703.4,1255.2,699.3z" transform="matrix(3.035615249851139, 0, 0, 3.035615249851139, -2966.072445045332, -1613.6937290343835)" style="stroke: rgb(0, 0, 0); stroke-width: 0; stroke-opacity: 0; fill-opacity: 1;"/><path fill="#55707A" d="M1255.7,687.4c-2.7-1.8-5.2,2.5-2.5,4.3c5.4,3.6,10.2,7.8,14.4,12.7c2.1,2.4,5.7-1.1,3.5-3.5&#10;&#9;&#9;&#9;&#9;C1266.6,695.7,1261.4,691.2,1255.7,687.4z" transform="matrix(3.035615249851139, 0, 0, 3.035615249851139, -2966.072445045332, -1613.6937290343835)" style="stroke: rgb(0, 0, 0); stroke-width: 0; stroke-opacity: 0; fill-opacity: 1;"/><path fill="#55707A" d="M1253.2,665.8c-3-1.1-4.3,3.7-1.3,4.8c14,5.1,24.6,16.8,28.3,31.2c0.8,3.1,5.6,1.8,4.8-1.3&#10;&#9;&#9;&#9;&#9;C1280.7,684.4,1268.8,671.5,1253.2,665.8z" transform="matrix(3.035615249851139, 0, 0, 3.035615249851139, -2966.072445045332, -1613.6937290343835)" style="stroke: rgb(0, 0, 0); stroke-width: 0; stroke-opacity: 0; fill-opacity: 1;"/><path fill="#55707A" d="M1292.6,680.6c-6.5-10.2-16.6-17.4-28.5-19.9c-3.1-0.7-4.5,4.1-1.3,4.8c10.6,2.3,19.6,8.4,25.5,17.6&#10;&#9;&#9;&#9;&#9;C1290,685.8,1294.4,683.3,1292.6,680.6z" transform="matrix(3.035615249851139, 0, 0, 3.035615249851139, -2966.072445045332, -1613.6937290343835)" style="stroke: rgb(0, 0, 0); stroke-width: 0; stroke-opacity: 0; fill-opacity: 1;"/><path fill="#55707A" d="M1275.7,658.5c6.6,2.1,12.1,6.2,16,11.9c1.8,2.7,6.1,0.2,4.3-2.5c-4.6-6.8-11.1-11.7-18.9-14.2&#10;&#9;&#9;&#9;&#9;C1274,652.7,1272.7,657.5,1275.7,658.5z" transform="matrix(3.035615249851139, 0, 0, 3.035615249851139, -2966.072445045332, -1613.6937290343835)" style="stroke: rgb(0, 0, 0); stroke-width: 0; stroke-opacity: 0; fill-opacity: 1;"/><path fill="#55707A" d="M1282.1,652.3c3.7,1.9,7,4.2,10,7.1c2.3,2.2,5.9-1.3,3.5-3.5c-3.3-3.2-7-5.8-11-7.9&#10;&#9;&#9;&#9;&#9;C1281.8,646.5,1279.2,650.8,1282.1,652.3z" transform="matrix(3.035615249851139, 0, 0, 3.035615249851139, -2966.072445045332, -1613.6937290343835)" style="stroke: rgb(0, 0, 0); stroke-width: 0; stroke-opacity: 0; fill-opacity: 1;"/><path fill="#FFE0B1" d="M435.9,340.4C435.9,340.4,435.9,340.4,435.9,340.4C435.9,340.4,435.9,340.4,435.9,340.4&#10;&#9;&#9;&#9;&#9;C435.9,340.4,435.9,340.4,435.9,340.4z" transform="matrix(1, 0, 0, 1, -30.0352783203125, 33.6395263671875)"/>
<path d="M 467.7738037109375 277.95050048828125 C 467.7738037109375 277.95050048828125 611.9434204101562 273.1448669433594 610.7420043945312 273.1448669433594 C 609.5405883789062 273.1448669433594 566.2897338867188 138.58656311035156 566.2897338867188 138.58656311035156 C 566.2897338867188 138.58656311035156 566.2897338867188 139.78797912597656 420.918701171875 259.9293212890625 C 275.54766845703125 380.0706787109375 357.2438049316406 162.6148223876953 357.2438049316406 162.6148223876953 L 323.6042175292969 198.6572265625 C 323.6042175292969 198.6572265625 320 219.08123779296875 316.395751953125 253.9222412109375 C 312.79150390625 288.76324462890625 404.0989074707031 345.2296447753906 404.0989074707031 345.2296447753906 L 109.75263977050781 95.33567810058594 C 109.75263977050781 95.33567810058594 109.75263977050781 95.33567810058594 6.431093215942383 34.0635986328125" style="fill: rgb(255, 255, 255); fill-opacity: 0; stroke: rgb(0, 0, 0); stroke-opacity: 1; stroke-width: 0; paint-order: fill;"/></svg>